<svg width="610" height="927" fill="none" xmlns="http://www.w3.org/2000/svg">
  <g opacity=".25" stroke-width="2">
    <path
      d="M707.573 393.543c90.218 201.426-79.01 513.375-204.929 588.969-125.919 75.598-309.265-24.693-399.483-226.118C12.943 554.968-56.32 91.262 69.599 15.668c125.919-75.593 547.756 176.45 637.974 377.875zm0 0c90.218 201.426-79.01 513.375-204.929 588.969"
      stroke="url(#prefix__paint0_linear_3_1506)" />
    <path
      d="M692.092 398.601c86.117 192.27-75.418 490.04-195.613 562.197-120.196 72.162-295.208-23.57-381.325-215.84C29.037 552.688-37.079 110.06 83.117 37.902c120.195-72.158 522.858 168.429 608.975 360.699zm0 0c86.117 192.27-75.418 490.04-195.613 562.197"
      stroke="url(#prefix__paint1_linear_3_1506)" />
    <path
      d="M676.612 403.658c82.016 183.115-71.827 466.705-186.299 535.426-114.472 68.726-281.15-22.447-363.166-205.562C45.13 550.408-17.837 128.857 96.635 60.136c114.472-68.722 497.96 160.408 579.977 343.522zm0 0c82.016 183.115-71.827 466.705-186.299 535.426"
      stroke="url(#prefix__paint2_linear_3_1506)" />
    <path
      d="M661.131 408.716c77.915 173.959-68.235 443.369-176.984 508.655-108.748 65.285-267.092-21.326-345.008-195.284C61.224 548.128 1.405 147.655 110.153 82.369c108.749-65.285 473.063 152.388 550.978 326.347zm0 0c77.915 173.959-68.235 443.369-176.984 508.655"
      stroke="url(#prefix__paint3_linear_3_1506)" />
    <path
      d="M645.65 413.773c73.815 164.803-64.644 420.034-167.668 481.884-103.025 61.849-253.036-20.203-326.85-185.006-73.815-164.803-130.485-544.199-27.46-606.048 103.024-61.85 448.164 144.368 521.978 309.17zm0 0c73.815 164.803-64.644 420.034-167.668 481.884"
      stroke="url(#prefix__paint4_linear_3_1506)" />
    <path
      d="M630.17 418.831c69.714 155.647-61.053 396.699-158.354 455.112-97.301 58.413-238.978-19.081-308.691-174.728C93.411 543.568 39.889 185.25 137.19 126.837c97.301-58.414 423.266 136.347 492.98 291.994zm0 0c69.714 155.647-61.053 396.699-158.354 455.112"
      stroke="url(#prefix__paint5_linear_3_1506)" />
    <path
      d="M614.689 423.888c65.613 146.492-57.461 373.364-149.039 428.341-91.577 54.978-224.92-17.958-290.533-164.449-65.613-146.492-115.986-483.732-24.409-538.71 91.578-54.977 398.368 128.327 463.981 274.818zm0 0c65.613 146.492-57.461 373.364-149.039 428.341"
      stroke="url(#prefix__paint6_linear_3_1506)" />
    <path
      d="M599.209 428.946c61.512 137.336-53.87 350.028-139.724 401.569-85.854 51.542-210.863-16.835-272.375-154.171-61.512-137.336-108.738-453.499-22.884-505.04S537.697 291.61 599.209 428.946zm0 0c61.512 137.336-53.87 350.028-139.724 401.569"
      stroke="url(#prefix__paint7_linear_3_1506)" />
    <path
      d="M583.728 434.003c57.411 128.18-50.279 326.693-130.409 374.799-80.13 48.105-196.805-15.714-254.216-143.894-57.412-128.18-101.489-423.265-21.358-471.371 80.13-48.105 348.572 112.286 405.983 240.466zm0 0c57.411 128.18-50.279 326.693-130.409 374.799"
      stroke="url(#prefix__paint8_linear_3_1506)" />
    <path
      d="M568.248 439.061c53.31 119.024-46.688 303.358-121.095 348.027-74.406 44.669-182.747-14.591-236.058-133.616-53.31-119.024-94.239-393.032-19.832-437.701 74.407-44.669 323.674 104.266 376.985 223.29zm0 0c53.31 119.024-46.688 303.358-121.095 348.027"
      stroke="url(#prefix__paint9_linear_3_1506)" />
    <path
      d="M552.767 444.118c49.21 109.869-43.096 280.023-111.779 321.256-68.683 41.233-168.69-13.469-217.9-123.337-49.21-109.869-86.99-362.799-18.307-404.032 68.683-41.233 298.776 96.245 347.986 206.113zm0 0c49.21 109.869-43.096 280.023-111.779 321.256"
      stroke="url(#prefix__paint10_linear_3_1506)" />
    <path
      d="M537.286 449.176c45.109 100.713-39.504 256.687-102.464 294.484-62.959 37.797-154.632-12.346-199.741-113.059-45.109-100.713-79.741-332.566-16.782-370.363 62.96-37.796 273.878 88.225 318.987 188.938zm0 0c45.109 100.713-39.504 256.687-102.464 294.484"
      stroke="url(#prefix__paint11_linear_3_1506)" />
    <path
      d="M521.806 454.233c41.008 91.558-35.914 233.353-93.15 267.713-57.235 34.361-140.575-11.223-181.583-102.781-41.008-91.557-72.491-302.332-15.255-336.693 57.236-34.361 248.98 80.204 289.988 171.761zm0 0c41.008 91.558-35.914 233.353-93.15 267.713"
      stroke="url(#prefix__paint12_linear_3_1506)" />
    <path
      d="M506.325 459.291c36.907 82.401-32.322 210.017-83.834 240.942-51.513 30.924-126.518-10.102-163.425-92.503-36.907-82.402-65.243-272.1-13.73-303.024 51.512-30.925 224.082 72.184 260.989 154.585zm0 0c36.907 82.401-32.322 210.017-83.834 240.942"
      stroke="url(#prefix__paint13_linear_3_1506)" />
    <path
      d="M490.845 464.348c32.806 73.246-28.731 186.682-74.52 214.171-45.789 27.489-112.46-8.979-145.266-82.225-32.807-73.246-57.994-241.866-12.205-269.355 45.789-27.488 199.184 64.164 231.991 137.409zm0 0c32.806 73.246-28.731 186.682-74.52 214.171"
      stroke="url(#prefix__paint14_linear_3_1506)" />
    <path
      d="M475.364 469.406c28.706 64.09-25.139 163.346-65.204 187.399-40.066 24.053-98.403-7.857-127.109-71.947-28.705-64.09-50.744-211.632-10.679-235.685 40.065-24.053 174.286 56.143 202.992 120.233zm0 0c28.706 64.09-25.139 163.346-65.204 187.399"
      stroke="url(#prefix__paint15_linear_3_1506)" />
    <path
      d="M459.883 474.463c24.605 54.935-21.548 140.012-55.889 160.628-34.342 20.617-84.345-6.734-108.95-61.668-24.605-54.935-43.495-181.4-9.154-202.016 34.342-20.617 149.389 48.122 173.993 103.056zm0 0c24.605 54.935-21.548 140.012-55.889 160.628"
      stroke="url(#prefix__paint16_linear_3_1506)" />
    <path
      d="M444.403 479.521c20.504 45.778-17.957 116.676-46.575 133.856-28.618 17.181-70.287-5.612-90.791-51.39-20.504-45.779-36.246-151.166-7.628-168.347 28.618-17.18 124.49 40.102 144.994 85.881zm0 0c20.504 45.778-17.957 116.676-46.575 133.856"
      stroke="url(#prefix__paint17_linear_3_1506)" />
    <path
      d="M428.922 484.578c16.404 36.623-14.365 93.341-37.259 107.086-22.895 13.744-56.23-4.49-72.634-41.113-16.403-36.623-28.996-120.933-6.102-134.677 22.894-13.744 99.592 32.082 115.995 68.704zm0 0c16.404 36.623-14.365 93.341-37.259 107.086"
      stroke="url(#prefix__paint18_linear_3_1506)" />
    <path
      d="M413.442 489.636c12.302 27.467-10.774 70.006-27.945 80.314-17.171 10.308-42.173-3.367-54.475-30.834-12.303-27.468-21.748-90.7-4.577-101.008 17.171-10.309 74.694 24.061 86.997 51.528zm0 0c12.302 27.467-10.774 70.006-27.945 80.314"
      stroke="url(#prefix__paint19_linear_3_1506)" />
    <path
      d="M397.961 494.693c8.202 18.312-7.183 46.671-18.63 53.543s-28.115-2.245-36.316-20.556c-8.202-18.312-14.499-60.467-3.051-67.339 11.447-6.872 49.796 16.041 57.997 34.352zm0 0c8.202 18.312-7.183 46.671-18.63 53.543"
      stroke="url(#prefix__paint20_linear_3_1506)" />
    <path
      d="M382.481 499.751c4.101 9.156-3.592 23.335-9.315 26.771-5.724 3.436-14.058-1.122-18.159-10.278-4.1-9.156-7.249-30.233-1.525-33.669 5.723-3.436 24.898 8.02 28.999 17.176zm0 0c4.101 9.156-3.592 23.335-9.315 26.771"
      stroke="url(#prefix__paint21_linear_3_1506)" />
  </g>
  <defs>
    <linearGradient id="prefix__paint0_linear_3_1506" x1="367" y1="1.939" x2="367" y2="1007.68"
      gradientUnits="userSpaceOnUse">
      <stop offset=".45" stop-color="#FEBE58" />
      <stop offset="1" stop-color="#DE2BAE" />
    </linearGradient>
    <linearGradient id="prefix__paint1_linear_3_1506" x1="367" y1="24.797" x2="367" y2="984.82"
      gradientUnits="userSpaceOnUse">
      <stop offset=".45" stop-color="#FEBE58" />
      <stop offset="1" stop-color="#DE2BAE" />
    </linearGradient>
    <linearGradient id="prefix__paint2_linear_3_1506" x1="367" y1="47.655" x2="367" y2="961.962"
      gradientUnits="userSpaceOnUse">
      <stop offset=".45" stop-color="#FEBE58" />
      <stop offset="1" stop-color="#DE2BAE" />
    </linearGradient>
    <linearGradient id="prefix__paint3_linear_3_1506" x1="367" y1="70.513" x2="367" y2="939.104"
      gradientUnits="userSpaceOnUse">
      <stop offset=".45" stop-color="#FEBE58" />
      <stop offset="1" stop-color="#DE2BAE" />
    </linearGradient>
    <linearGradient id="prefix__paint4_linear_3_1506" x1="367" y1="93.37" x2="367" y2="916.247"
      gradientUnits="userSpaceOnUse">
      <stop offset=".45" stop-color="#FEBE58" />
      <stop offset="1" stop-color="#DE2BAE" />
    </linearGradient>
    <linearGradient id="prefix__paint5_linear_3_1506" x1="367" y1="116.228" x2="367" y2="893.389"
      gradientUnits="userSpaceOnUse">
      <stop offset=".45" stop-color="#FEBE58" />
      <stop offset="1" stop-color="#DE2BAE" />
    </linearGradient>
    <linearGradient id="prefix__paint6_linear_3_1506" x1="367" y1="139.086" x2="367" y2="870.531"
      gradientUnits="userSpaceOnUse">
      <stop offset=".45" stop-color="#FEBE58" />
      <stop offset="1" stop-color="#DE2BAE" />
    </linearGradient>
    <linearGradient id="prefix__paint7_linear_3_1506" x1="367" y1="161.943" x2="367" y2="847.674"
      gradientUnits="userSpaceOnUse">
      <stop offset=".45" stop-color="#FEBE58" />
      <stop offset="1" stop-color="#DE2BAE" />
    </linearGradient>
    <linearGradient id="prefix__paint8_linear_3_1506" x1="367" y1="184.801" x2="367" y2="824.816"
      gradientUnits="userSpaceOnUse">
      <stop offset=".45" stop-color="#FEBE58" />
      <stop offset="1" stop-color="#DE2BAE" />
    </linearGradient>
    <linearGradient id="prefix__paint9_linear_3_1506" x1="367" y1="207.659" x2="367" y2="801.958"
      gradientUnits="userSpaceOnUse">
      <stop offset=".45" stop-color="#FEBE58" />
      <stop offset="1" stop-color="#DE2BAE" />
    </linearGradient>
    <linearGradient id="prefix__paint10_linear_3_1506" x1="367" y1="230.516" x2="367" y2="779.101"
      gradientUnits="userSpaceOnUse">
      <stop offset=".45" stop-color="#FEBE58" />
      <stop offset="1" stop-color="#DE2BAE" />
    </linearGradient>
    <linearGradient id="prefix__paint11_linear_3_1506" x1="367" y1="253.374" x2="367" y2="756.243"
      gradientUnits="userSpaceOnUse">
      <stop offset=".45" stop-color="#FEBE58" />
      <stop offset="1" stop-color="#DE2BAE" />
    </linearGradient>
    <linearGradient id="prefix__paint12_linear_3_1506" x1="367" y1="276.232" x2="367" y2="733.385"
      gradientUnits="userSpaceOnUse">
      <stop offset=".45" stop-color="#FEBE58" />
      <stop offset="1" stop-color="#DE2BAE" />
    </linearGradient>
    <linearGradient id="prefix__paint13_linear_3_1506" x1="367" y1="299.089" x2="367" y2="710.528"
      gradientUnits="userSpaceOnUse">
      <stop offset=".45" stop-color="#FEBE58" />
      <stop offset="1" stop-color="#DE2BAE" />
    </linearGradient>
    <linearGradient id="prefix__paint14_linear_3_1506" x1="367" y1="321.947" x2="367" y2="687.67"
      gradientUnits="userSpaceOnUse">
      <stop offset=".45" stop-color="#FEBE58" />
      <stop offset="1" stop-color="#DE2BAE" />
    </linearGradient>
    <linearGradient id="prefix__paint15_linear_3_1506" x1="367" y1="344.805" x2="367" y2="664.812"
      gradientUnits="userSpaceOnUse">
      <stop offset=".45" stop-color="#FEBE58" />
      <stop offset="1" stop-color="#DE2BAE" />
    </linearGradient>
    <linearGradient id="prefix__paint16_linear_3_1506" x1="367" y1="367.662" x2="367" y2="641.955"
      gradientUnits="userSpaceOnUse">
      <stop offset=".45" stop-color="#FEBE58" />
      <stop offset="1" stop-color="#DE2BAE" />
    </linearGradient>
    <linearGradient id="prefix__paint17_linear_3_1506" x1="367" y1="390.52" x2="367" y2="619.097"
      gradientUnits="userSpaceOnUse">
      <stop offset=".45" stop-color="#FEBE58" />
      <stop offset="1" stop-color="#DE2BAE" />
    </linearGradient>
    <linearGradient id="prefix__paint18_linear_3_1506" x1="367" y1="413.378" x2="367" y2="596.239"
      gradientUnits="userSpaceOnUse">
      <stop offset=".45" stop-color="#FEBE58" />
      <stop offset="1" stop-color="#DE2BAE" />
    </linearGradient>
    <linearGradient id="prefix__paint19_linear_3_1506" x1="367" y1="436.235" x2="367" y2="573.382"
      gradientUnits="userSpaceOnUse">
      <stop offset=".45" stop-color="#FEBE58" />
      <stop offset="1" stop-color="#DE2BAE" />
    </linearGradient>
    <linearGradient id="prefix__paint20_linear_3_1506" x1="367" y1="459.093" x2="367" y2="550.524"
      gradientUnits="userSpaceOnUse">
      <stop offset=".45" stop-color="#FEBE58" />
      <stop offset="1" stop-color="#DE2BAE" />
    </linearGradient>
    <linearGradient id="prefix__paint21_linear_3_1506" x1="367" y1="481.951" x2="367" y2="527.666"
      gradientUnits="userSpaceOnUse">
      <stop offset=".45" stop-color="#FEBE58" />
      <stop offset="1" stop-color="#DE2BAE" />
    </linearGradient>
  </defs>
</svg>
